<?xml version="1.0" encoding="UTF-8"?>
<svg xmlns="http://www.w3.org/2000/svg" viewBox="0 0 120 120" width="120" height="120">
  <defs>
    <linearGradient id="bg" x1="0%" y1="0%" x2="100%" y2="100%">
      <stop offset="0%" stop-color="#5B21B6"/>
      <stop offset="100%" stop-color="#4F46E5"/>
    </linearGradient>
  </defs>
  <!-- Squircle background -->
  <rect x="0" y="0" width="120" height="120" rx="27" ry="27" fill="url(#bg)"/>
  <!-- Modern receipt shape -->
  <path d="M40 22 L80 22 C82.2 22 84 23.8 84 26 L84 88 L79 84 L74 88 L69 84 L64 88 L59 84 L54 88 L49 84 L44 88 L44 88 L39 84 L36 88 L36 26 C36 23.8 37.8 22 40 22 Z" fill="white" opacity="0.95"/>
  <!-- Receipt lines -->
  <rect x="44" y="34" width="28" height="3" rx="1.5" fill="#4338CA" opacity="0.6"/>
  <rect x="44" y="44" width="22" height="3" rx="1.5" fill="#4338CA" opacity="0.4"/>
  <rect x="44" y="54" width="26" height="3" rx="1.5" fill="#4338CA" opacity="0.6"/>
  <rect x="44" y="64" width="18" height="3" rx="1.5" fill="#4338CA" opacity="0.4"/>
  <!-- Green checkmark badge (bottom-right) -->
  <circle cx="88" cy="86" r="17" fill="#10B981"/>
  <circle cx="88" cy="86" r="17" fill="none" stroke="white" stroke-width="2" opacity="0.3"/>
  <polyline points="79.5,86 85,91.5 96.5,80" fill="none" stroke="white" stroke-width="3.5" stroke-linecap="round" stroke-linejoin="round"/>
</svg>
