<?xml version="1.0" encoding="UTF-8"?>
<svg version="1.1" xmlns="http://www.w3.org/2000/svg" width="107" height="106">
<path d="M0 0 C9.75830395 9.29538631 16.17405595 21.04227389 16.94921875 34.65234375 C17.1481294 51.60947686 13.24713147 65.14839114 1.28515625 77.73046875 C-11.48110441 89.57363056 -25.13005885 93.14111631 -42.1484375 92.52734375 C-55.42316407 91.64563666 -65.22102322 85.1811028 -75.06640625 76.6484375 C-86.5580907 63.18675 -90.27590125 49.80729324 -89.44482422 32.38916016 C-88.35786522 19.27615347 -81.13025982 8.03939038 -71.76953125 -0.84375 C-50.3804956 -18.44652779 -21.0750504 -17.89735649 0 0 Z " fill="#276F9D" transform="translate(90.25390625,13.9140625)"/>
<path d="M0 0 C2.66666667 1.33333333 5.33333333 2.66666667 8 4 C8.391875 3.484375 8.78375 2.96875 9.1875 2.4375 C11 1 11 1 13.4375 1.1875 C15.79023229 1.93348829 17.84602265 2.80334592 20 4 C21.32 2.68 22.64 1.36 24 0 C27.11198065 1.49836105 30.0534615 3.19933758 33 5 C33 4.34 33 3.68 33 3 C34.3125 1.375 34.3125 1.375 36 0 C36.99 0 37.98 0 39 0 C40.6875 2 40.6875 2 42 4 C45.26954202 3.43628586 46.82575883 2.50037734 49 0 C49.99 0.33 50.98 0.66 52 1 C52 10.9 52 20.8 52 31 C48.04 31.33 44.08 31.66 40 32 C34.21652917 34.65075746 31.11904659 37.07095691 28.6171875 42.94921875 C27.04880813 48.16060591 27.84833215 52.15874734 30 57 C30 57.99 30 58.98 30 60 C28 61.6875 28 61.6875 26 63 C23.33333333 61.66666667 20.66666667 60.33333333 18 59 C16.68 60.32 15.36 61.64 14 63 C13.236875 62.690625 12.47375 62.38125 11.6875 62.0625 C9.81210323 61.32106407 7.91315348 60.63771783 6 60 C4.64664105 60.97272675 3.31337396 61.9739266 2 63 C1.01 63 0.02 63 -1 63 C-1.02312737 54.93347826 -1.04091709 46.86697028 -1.05181217 38.80042362 C-1.05704014 35.05516963 -1.06413622 31.30993824 -1.07543945 27.56469727 C-1.08627141 23.95318313 -1.09227749 20.34169079 -1.09487724 16.73016167 C-1.09673094 15.34939671 -1.10035049 13.968633 -1.10573006 12.58787727 C-1.11294447 10.66024048 -1.11340809 8.73258193 -1.11352539 6.80493164 C-1.115746 5.70572891 -1.11796661 4.60652618 -1.12025452 3.47401428 C-1 1 -1 1 0 0 Z " fill="#F7F5EB" transform="translate(26,21)"/>
<path d="M0 0 C9.75830395 9.29538631 16.17405595 21.04227389 16.94921875 34.65234375 C17.1481294 51.60947686 13.24713147 65.14839114 1.28515625 77.73046875 C-11.48110441 89.57363056 -25.13005885 93.14111631 -42.1484375 92.52734375 C-55.42316407 91.64563666 -65.22102322 85.1811028 -75.06640625 76.6484375 C-86.5580907 63.18675 -90.27590125 49.80729324 -89.44482422 32.38916016 C-88.35786522 19.27615347 -81.13025982 8.03939038 -71.76953125 -0.84375 C-50.3804956 -18.44652779 -21.0750504 -17.89735649 0 0 Z M-73.40234375 7.88671875 C-83.17175076 19.49046589 -85.54386409 31.82600456 -84.55126953 46.6015625 C-83.03987418 59.22878675 -75.52346987 69.90768087 -65.94140625 77.8984375 C-57.07215171 84.4117963 -48.32264032 87.26459866 -37.50390625 87.2734375 C-36.73046875 87.28568359 -35.95703125 87.29792969 -35.16015625 87.31054688 C-22.86527629 87.34149036 -11.02895526 82.61837505 -2.05859375 74.11328125 C7.46881415 63.41041393 12.92019344 50.35914805 12.16015625 36.01171875 C10.72675255 22.42142899 4.81727322 10.66038425 -5.72265625 1.87109375 C-27.56380106 -13.53230621 -54.84819602 -11.51751941 -73.40234375 7.88671875 Z " fill="#0C3153" transform="translate(90.25390625,13.9140625)"/>
<path d="M0 0 C5.05491305 2.79450854 8.48879763 6.78449409 10.6328125 12.14453125 C11.72853195 17.66527157 10.29506515 22.27903502 7.6328125 27.14453125 C3.9157325 31.5648426 0.12197225 34.72901957 -5.76171875 35.4296875 C-11.038735 35.61165358 -14.95509919 35.28201627 -19.3671875 32.14453125 C-24.36409467 27.26166138 -27.00674087 23.89317624 -27.6796875 16.89453125 C-27.2072524 11.22531007 -25.57758106 7.34557854 -21.51953125 3.3046875 C-15.03371858 -1.69798107 -7.76620523 -2.80659892 0 0 Z " fill="#278956" transform="translate(80.3671875,52.85546875)"/>
<path d="M0 0 C11.22 0 22.44 0 34 0 C34 1.32 34 2.64 34 4 C23.11 4 12.22 4 1 4 C0.67 2.68 0.34 1.36 0 0 Z " fill="#274968" transform="translate(32,35)"/>
<path d="M0 0 C0.5775 0.24363281 1.155 0.48726562 1.75 0.73828125 C0.09136495 5.06332961 -3.121041 7.8324695 -6.375 10.98828125 C-6.93832031 11.54257813 -7.50164062 12.096875 -8.08203125 12.66796875 C-9.46686028 14.0293261 -10.85783204 15.38442984 -12.25 16.73828125 C-16.02686717 14.97897133 -18.51668556 12.92714809 -21.25 9.73828125 C-21.25 8.41828125 -21.25 7.09828125 -21.25 5.73828125 C-17.98045798 6.30199539 -16.42424117 7.23790391 -14.25 9.73828125 C-9.87170683 7.89118882 -7.37120954 4.80119267 -4.25 1.3203125 C-2.25 -0.26171875 -2.25 -0.26171875 0 0 Z " fill="#093554" transform="translate(82.25,61.26171875)"/>
<path d="M0 0 C8.25 0 16.5 0 25 0 C24.67 1.32 24.34 2.64 24 4 C16.41 4 8.82 4 1 4 C0.67 2.68 0.34 1.36 0 0 Z " fill="#284A69" transform="translate(32,45)"/>
<path d="M0 0 C5.94 0 11.88 0 18 0 C18 0.99 18 1.98 18 3 C12.06 3 6.12 3 0 3 C0 2.01 0 1.02 0 0 Z " fill="#10365A" transform="translate(32,55)"/>
</svg>
